<?xml version="1.0" standalone="no"?><!DOCTYPE svg PUBLIC "-//W3C//DTD SVG 1.1//EN" "http://www.w3.org/Graphics/SVG/1.1/DTD/svg11.dtd"><svg t="1651538392158" class="icon" viewBox="0 0 1024 1024" version="1.1" xmlns="http://www.w3.org/2000/svg" p-id="3385" xmlns:xlink="http://www.w3.org/1999/xlink" width="200" height="200"><defs><style type="text/css"></style></defs><path d="M839.8 281.4c-17.9-42.3-43.5-80.3-76.1-112.9-32.6-32.6-70.6-58.2-112.9-76.1-43.8-18.6-90.4-28-138.3-28-48 0-94.5 9.4-138.3 27.9-42.3 17.9-80.3 43.5-112.9 76.1-32.6 32.6-58.2 70.6-76.1 112.9-18.5 43.8-27.9 90.3-27.9 138.3 0 81.3 57.4 196.2 170.5 341.5C410.3 867.3 494.1 952 495 952.8c4.6 4.7 11 7.3 17.5 7.3 6.6 0 12.9-2.6 17.5-7.3 0.8-0.8 84.6-85.6 167.2-191.6C810.4 616 867.8 501.1 867.8 419.7c0-47.9-9.4-94.5-28-138.3zM510.7 555.9c-71.9 0-130.4-58.5-130.4-130.4s58.5-130.4 130.4-130.4 130.4 58.5 130.4 130.4-58.5 130.4-130.4 130.4z" p-id="3386" fill="#1296db"></path></svg>