<?xml version="1.0" standalone="no"?><!DOCTYPE svg PUBLIC "-//W3C//DTD SVG 1.1//EN" "http://www.w3.org/Graphics/SVG/1.1/DTD/svg11.dtd"><svg t="1651538618941" class="icon" viewBox="0 0 1024 1024" version="1.1" xmlns="http://www.w3.org/2000/svg" p-id="3744" xmlns:xlink="http://www.w3.org/1999/xlink" width="200" height="200"><defs><style type="text/css"></style></defs><path d="M512 862.315789c-8.084211 0-13.473684-10.778947-13.473684-10.778947l-5.389474-8.08421c-5.389474-2.694737-8.084211-8.084211-8.08421-8.084211l-188.631579-269.473684c-35.031579-45.810526-53.894737-102.4-53.894737-161.684211C242.526316 256 363.789474 134.736842 512 134.736842s269.473684 121.263158 269.473684 269.473684c0 61.978947-18.863158 115.873684-53.894737 161.684211-8.084211 10.778947-158.989474 229.052632-188.631579 269.473684l-5.389473 5.389474c-2.694737 5.389474-5.389474 10.778947-8.084211 10.778947-5.389474 8.084211-10.778947 10.778947-13.473684 10.778947z m0-129.347368c43.115789-59.284211 107.789474-153.6 148.210526-212.88421v-2.694737c26.947368-32.336842 40.421053-72.757895 40.421053-113.178948 0-105.094737-83.536842-188.631579-188.631579-188.631579s-188.631579 83.536842-188.631579 188.631579c0 40.421053 13.473684 80.842105 37.726316 113.178948l150.905263 215.578947z" fill="#1296db" p-id="3745"></path><path d="M512 485.052632c-45.810526 0-80.842105-35.031579-80.842105-80.842106s35.031579-80.842105 80.842105-80.842105 80.842105 35.031579 80.842105 80.842105-35.031579 80.842105-80.842105 80.842106z m0-53.894737c16.168421 0 26.947368-10.778947 26.947368-26.947369s-10.778947-26.947368-26.947368-26.947368-26.947368 10.778947-26.947368 26.947368 10.778947 26.947368 26.947368 26.947369z" fill="#1296db" p-id="3746"></path></svg>