<?xml version="1.0" standalone="no"?><!DOCTYPE svg PUBLIC "-//W3C//DTD SVG 1.1//EN" "http://www.w3.org/Graphics/SVG/1.1/DTD/svg11.dtd"><svg t="1651316864695" class="icon" viewBox="0 0 1024 1024" version="1.1" xmlns="http://www.w3.org/2000/svg" p-id="1209" xmlns:xlink="http://www.w3.org/1999/xlink" width="200" height="200"><defs><style type="text/css">@font-face { font-family: feedback-iconfont; src: url("//at.alicdn.com/t/font_1031158_u69w8yhxdu.woff2?t=1630033759944") format("woff2"), url("//at.alicdn.com/t/font_1031158_u69w8yhxdu.woff?t=1630033759944") format("woff"), url("//at.alicdn.com/t/font_1031158_u69w8yhxdu.ttf?t=1630033759944") format("truetype"); }
</style></defs><path d="M269.8752 187.7504m-95.5904 0a95.5904 95.5904 0 1 0 191.1808 0 95.5904 95.5904 0 1 0-191.1808 0Z" fill="#f4ea2a" p-id="1210"></path><path d="M474.88 172.5952m-80.4352 0a80.4352 80.4352 0 1 0 160.8704 0 80.4352 80.4352 0 1 0-160.8704 0Z" fill="#f4ea2a" p-id="1211"></path><path d="M661.2992 211.1488m-63.488 0a63.488 63.488 0 1 0 126.976 0 63.488 63.488 0 1 0-126.976 0Z" fill="#f4ea2a" p-id="1212"></path><path d="M790.272 297.472m-46.4896 0a46.4896 46.4896 0 1 0 92.9792 0 46.4896 46.4896 0 1 0-92.9792 0Z" fill="#f4ea2a" p-id="1213"></path><path d="M761.088 428.4416c-41.1648-122.88-145.7664-124.2112-188.8768-124.2112H369.6128c-92.8256 0-144.4352 52.9408-156.8768 88.2176s-18.944 71.2192 55.552 132.6592 30.976 154.368 17.664 178.432c-10.1376 18.2784-35.2768 42.496-36.608 92.8256-1.3312 50.3296 23.552 130.7136 166.0416 142.4896 195.4304 7.8336 281.7024-152.2688 288.9216-167.9872s43.1616-123.5456 56.8832-161.4336c13.6192-37.8368 19.5072-118.8864-0.1024-180.992z m-353.1776 290.0992a25.52832 25.52832 0 0 1-22.0672 12.544c-4.4544 0-8.9088-1.1776-13.0048-3.584a25.55904 25.55904 0 0 1-8.96-35.072c58.2656-98.304-1.024-179.0976-3.584-182.4768-8.448-11.264-6.2976-27.2896 4.9152-35.84a25.46688 25.46688 0 0 1 35.7376 4.7616c3.4304 4.4544 83.2 110.9504 6.9632 239.6672z" fill="#f4ea2a" p-id="1214"></path><path d="M772.6592 546.6112c2.7136-37.376 0.1024-81.1008-11.5712-118.1696-41.1648-122.88-145.7664-124.2112-188.8768-124.2112H369.6128c-92.8256 0-144.4352 52.9408-156.8768 88.2176s-18.944 71.2192 55.552 132.6592 30.976 154.368 17.664 178.432c-10.1376 18.2784-35.2768 42.496-36.608 92.8256-0.3072 12.2368 0.9216 26.3168 5.0688 40.704 38.7584 5.376 78.848 6.1952 119.5008 1.8432 182.016-19.2512 330.2912-135.68 398.7456-292.3008z m-364.7488 171.9296a25.52832 25.52832 0 0 1-22.0672 12.544c-4.4544 0-8.9088-1.1776-13.0048-3.584a25.55904 25.55904 0 0 1-8.96-35.072c58.2656-98.304-1.024-179.0976-3.584-182.4768-8.448-11.264-6.2976-27.2896 4.9152-35.84a25.46688 25.46688 0 0 1 35.7376 4.7616c3.4304 4.4544 83.2 110.9504 6.9632 239.6672zM743.7824 297.472a46.4896 46.4896 0 0 0 46.4896 46.4896c8.448 0 16.2816-2.2528 23.0912-6.1952-0.3584-13.056-1.1776-26.1632-2.6112-39.3728-1.6384-15.36-3.9936-30.5152-6.9632-45.3632-4.3008-1.28-8.8576-1.9968-13.568-1.9968-25.6512-0.0512-46.4384 20.7872-46.4384 46.4384z" fill="#f4ea2a" p-id="1215"></path><path d="M687.4112 330.5472c-42.7008-25.856-89.7024-26.3168-115.2512-26.3168H369.5616c-92.8256 0-144.4352 52.9408-156.8768 88.2176s-18.944 71.2192 55.552 132.6592c51.6608 42.5984 46.592 100.2496 34.1504 139.7248 28.3136-4.8128 55.6544-12.032 81.92-21.3504 18.944-74.9056-21.9648-130.7648-24.064-133.5808-8.448-11.264-6.2976-27.2896 4.9152-35.84a25.46688 25.46688 0 0 1 35.7376 4.7616c2.5088 3.2256 45.2608 60.416 39.2192 140.8 117.9136-59.2384 207.1552-164.0448 247.296-289.0752zM710.7072 171.3664a63.2576 63.2576 0 0 0-49.408-23.6544c-35.072 0-63.488 28.416-63.488 63.488s28.416 63.488 63.488 63.488c16.896 0 32.1536-6.6048 43.52-17.3568a487.8336 487.8336 0 0 0 5.888-85.9648z" fill="#f4ea2a" p-id="1216"></path><path d="M501.3504 304.2816H369.5616c-92.8256 0-144.4352 52.9408-156.8768 88.2176-10.2912 29.2352-16.4864 58.9312 23.9616 103.168 109.7216-32.3072 202.0864-101.2224 264.704-191.3856z" fill="#f4ea2a" p-id="1217"></path><path d="M364.3904 174.336C357.888 127.8976 318.1056 92.16 269.8752 92.16c-52.7872 0-95.5904 42.8032-95.5904 95.5904 0 45.312 31.5904 83.2 73.8816 93.0304a448.53248 448.53248 0 0 0 116.224-106.4448z" fill="#f4ea2a" p-id="1218"></path></svg>