<?xml version="1.0" standalone="no"?><!DOCTYPE svg PUBLIC "-//W3C//DTD SVG 1.1//EN" "http://www.w3.org/Graphics/SVG/1.1/DTD/svg11.dtd"><svg t="1651316897420" class="icon" viewBox="0 0 1024 1024" version="1.1" xmlns="http://www.w3.org/2000/svg" p-id="1593" xmlns:xlink="http://www.w3.org/1999/xlink" width="200" height="200"><defs><style type="text/css">@font-face { font-family: feedback-iconfont; src: url("//at.alicdn.com/t/font_1031158_u69w8yhxdu.woff2?t=1630033759944") format("woff2"), url("//at.alicdn.com/t/font_1031158_u69w8yhxdu.woff?t=1630033759944") format("woff"), url("//at.alicdn.com/t/font_1031158_u69w8yhxdu.ttf?t=1630033759944") format("truetype"); }
</style></defs><path d="M519.3216 744.2432c-18.0736 0-36.1472-4.4544-52.3264-13.3632l-350.72-193.1264c-19.1488-10.5472-25.856-34.1504-15.0016-52.736 10.8544-18.5856 35.1744-25.1392 54.3232-14.592l350.72 193.1264c8.0896 4.4544 18.1248 4.4032 26.1632-0.0512l345.9584-192.9728c19.0976-10.6496 43.4176-4.2496 54.3744 14.2848 10.9568 18.5344 4.352 42.1888-14.6944 52.8384l-345.9584 192.9728a108.7488 108.7488 0 0 1-52.8384 13.6192z" fill="#f4ea2a" p-id="1594"></path><path d="M519.3216 909.824c-18.0736 0-36.1472-4.4544-52.3264-13.3632l-350.72-193.1264c-19.1488-10.5472-25.856-34.1504-15.0016-52.7872 10.8544-18.5856 35.1744-25.1392 54.3232-14.592l350.72 193.1264c8.0896 4.4544 18.1248 4.4544 26.1632-0.0512l345.9584-192.9728c19.0976-10.6496 43.4176-4.2496 54.3744 14.2848 10.9568 18.5344 4.352 42.1888-14.6944 52.8384l-345.9584 192.9728a108.24704 108.24704 0 0 1-52.8384 13.6704z" fill="#f4ea2a" p-id="1595"></path><path d="M884.1728 300.5952l-322.1504-187.5456c-26.7776-15.616-59.904-15.36-86.4768 0.6144L164.3008 300.9536c-32.7168 19.712-32.2048 67.2768 0.9216 86.272l311.8592 178.6368a84.82816 84.82816 0 0 0 83.3536 0.5632l322.816-178.8928c33.9456-18.7392 34.4576-67.3792 0.9216-86.9376z m-432.896-41.4208L307.456 349.3376c-4.1984 2.6624-8.9088 3.9424-13.568 3.9424-8.4992 0-16.8448-4.2496-21.7088-11.9808a25.56416 25.56416 0 0 1 8.0896-35.2768l143.7696-90.2144a25.56416 25.56416 0 0 1 35.2768 8.0896c7.5264 11.9296 3.9424 27.7504-8.0384 35.2768z" fill="#f4ea2a" p-id="1596"></path><path d="M811.4688 258.2528l-249.4464-145.2032c-26.7776-15.616-59.904-15.36-86.4768 0.6144L164.3008 300.9536c-32.7168 19.712-32.2048 67.2768 0.9216 86.272l311.8592 178.6368a84.82816 84.82816 0 0 0 83.3536 0.5632l158.9248-88.064c47.9744-63.4368 80.3328-138.8544 92.1088-220.1088z m-360.192 0.9216L307.456 349.3376c-4.1984 2.6624-8.9088 3.9424-13.568 3.9424-8.4992 0-16.8448-4.2496-21.7088-11.9808a25.56416 25.56416 0 0 1 8.0896-35.2768l143.7696-90.2144a25.56416 25.56416 0 0 1 35.2768 8.0896c7.5264 11.9296 3.9424 27.7504-8.0384 35.2768z" fill="#f4ea2a" p-id="1597"></path><path d="M903.68 465.7664c-8.448-1.1264-17.2544 0.3072-25.2416 4.7616L532.48 663.5008c-8.0384 4.5056-18.0736 4.5056-26.1632 0.0512l-350.72-193.1264c-19.1488-10.5472-43.4688-3.9936-54.3232 14.592-10.8544 18.5856-4.1472 42.24 15.0016 52.736l350.72 193.1264c16.128 8.9088 34.2528 13.3632 52.3264 13.3632 18.2784 0 36.5568-4.5568 52.8384-13.6192l295.6288-164.864c15.5136-31.6416 27.648-65.1264 35.8912-99.9936z" fill="#f4ea2a" p-id="1598"></path><path d="M155.5968 470.4256c-19.1488-10.5472-43.4688-3.9936-54.3232 14.592-10.8544 18.5856-4.1472 42.24 15.0016 52.736l237.6192 130.816c11.0592-0.4096 22.1696-1.1776 33.3824-2.3552 31.232-3.328 61.44-9.5744 90.4192-18.4832L155.5968 470.4256z" fill="#f4ea2a" p-id="1599"></path><path d="M238.2848 515.9424l-82.688-45.5168c-19.1488-10.5472-43.4688-3.9936-54.3232 14.592-2.9184 5.0176-4.5568 10.4448-5.0176 15.872a477.184 477.184 0 0 0 142.0288 15.0528zM675.84 179.3024l-113.8176-66.2528c-26.7776-15.616-59.904-15.36-86.4768 0.6144L164.3008 300.9536c-32.7168 19.712-32.2048 67.2768 0.9216 86.272l190.3104 109.0048c154.5216-46.1312 273.5104-166.912 320.3072-316.928zM272.1792 341.2992a25.56416 25.56416 0 0 1 8.0896-35.2768l143.7696-90.2144a25.56416 25.56416 0 0 1 35.2768 8.0896c7.5264 11.9808 3.8912 27.8016-8.0896 35.2768L307.456 349.3376c-4.1984 2.6624-8.9088 3.9424-13.568 3.9424-8.4992 0-16.8448-4.2496-21.7088-11.9808z" fill="#f4ea2a" p-id="1600"></path><path d="M475.5456 113.664L164.3008 300.9536c-19.7632 11.8784-27.3408 33.9456-22.9376 53.76 11.8272-0.3072 23.7568-1.024 35.7376-2.304 31.8464-3.3792 62.5664-10.1376 91.7504-19.8144-1.9968-10.0864 2.2016-20.8384 11.4176-26.624l143.7696-90.2144c8.4992-5.3248 18.8416-4.9664 26.88-0.1024a438.85568 438.85568 0 0 0 76.6464-113.7152c-17.8176-1.6896-36.096 2.1504-52.0192 11.7248z" fill="#f4ea2a" p-id="1601"></path><path d="M506.9824 829.44c-0.2048-0.1024-0.4608-0.2048-0.6656-0.3072l-350.72-193.1264c-19.1488-10.5472-43.4688-3.9936-54.3232 14.592-10.8544 18.5856-4.1472 42.24 15.0016 52.7872l218.6752 120.4224a480.17408 480.17408 0 0 0 152.5248 8.192c6.5536-0.768 13.056-1.6384 19.5072-2.56zM778.1376 692.0704l-233.728 130.3552c91.0848-20.8384 171.3152-67.1232 233.728-130.3552z" fill="#f4ea2a" p-id="1602"></path></svg>