<?xml version="1.0" standalone="no"?><!DOCTYPE svg PUBLIC "-//W3C//DTD SVG 1.1//EN" "http://www.w3.org/Graphics/SVG/1.1/DTD/svg11.dtd"><svg t="1651505697261" class="icon" viewBox="0 0 1024 1024" version="1.1" xmlns="http://www.w3.org/2000/svg" p-id="1209" xmlns:xlink="http://www.w3.org/1999/xlink" width="200" height="200"><defs><style type="text/css">@font-face { font-family: feedback-iconfont; src: url("//at.alicdn.com/t/font_1031158_u69w8yhxdu.woff2?t=1630033759944") format("woff2"), url("//at.alicdn.com/t/font_1031158_u69w8yhxdu.woff?t=1630033759944") format("woff"), url("//at.alicdn.com/t/font_1031158_u69w8yhxdu.ttf?t=1630033759944") format("truetype"); }
</style></defs><path d="M608.1024 114.688h-3.328v169.472c0 19.8144 16.128 35.9424 35.9424 35.9424h195.1744L608.1024 114.688z" fill="#f4ea2a" p-id="1210"></path><path d="M640.768 373.4016c-49.2032 0-89.2928-40.0384-89.2928-89.2928V114.688H275.712c-57.7024 0-104.4992 46.7968-104.4992 104.4992V804.352c0 57.7024 46.7968 104.4992 104.4992 104.4992h476.9792c57.7024 0 104.4992-46.7968 104.4992-104.4992V373.4016h-216.4224z m-331.0592-36.2496h164.5568c14.1312 0 25.6 11.4688 25.6 25.6s-11.4688 25.6-25.6 25.6H309.7088c-14.1312 0-25.6-11.4688-25.6-25.6s11.4688-25.6 25.6-25.6z m293.4784 402.3296H309.7088c-14.1312 0-25.6-11.4688-25.6-25.6s11.4688-25.6 25.6-25.6h293.4784c14.1312 0 25.6 11.4688 25.6 25.6s-11.4688 25.6-25.6 25.6z m0-181.504H309.7088c-14.1312 0-25.6-11.4688-25.6-25.6s11.4688-25.6 25.6-25.6h293.4784c14.1312 0 25.6 11.4688 25.6 25.6s-11.4688 25.6-25.6 25.6z" fill="#f4ea2a" p-id="1211"></path><path d="M551.5264 284.16V114.688H275.712c-57.7024 0-104.4992 46.7968-104.4992 104.4992V804.352c0 1.0752 0.1536 2.1504 0.1536 3.2256 61.5936 31.6416 130.816 50.7392 204.544 53.7088 218.624 8.8576 409.6-126.5152 481.2288-321.3312V373.4016h-216.4224c-49.152 0-89.1904-40.0384-89.1904-89.2416zM309.7088 337.152h164.5568c14.1312 0 25.6 11.4688 25.6 25.6s-11.4688 25.6-25.6 25.6H309.7088c-14.1312 0-25.6-11.4688-25.6-25.6s11.4688-25.6 25.6-25.6z m293.4784 402.3296H309.7088c-14.1312 0-25.6-11.4688-25.6-25.6s11.4688-25.6 25.6-25.6h293.4784c14.1312 0 25.6 11.4688 25.6 25.6s-11.4688 25.6-25.6 25.6z m0-181.504H309.7088c-14.1312 0-25.6-11.4688-25.6-25.6s11.4688-25.6 25.6-25.6h293.4784c14.1312 0 25.6 11.4688 25.6 25.6s-11.4688 25.6-25.6 25.6z" fill="#f4ea2a" p-id="1212"></path><path d="M640.768 373.4016c-49.2032 0-89.2928-40.0384-89.2928-89.2928V114.688H275.712c-57.7024 0-104.4992 46.7968-104.4992 104.4992v436.992a491.04384 491.04384 0 0 0 127.7952 22.2208c212.4288 8.6016 398.7968-118.9888 474.88-304.9984h-133.12z m-331.0592-36.2496h164.5568c14.1312 0 25.6 11.4688 25.6 25.6s-11.4688 25.6-25.6 25.6H309.7088c-14.1312 0-25.6-11.4688-25.6-25.6s11.4688-25.6 25.6-25.6z m293.4784 220.8256H309.7088c-14.1312 0-25.6-11.4688-25.6-25.6s11.4688-25.6 25.6-25.6h293.4784c14.1312 0 25.6 11.4688 25.6 25.6s-11.4688 25.6-25.6 25.6z" fill="#f4ea2a" p-id="1213"></path><path d="M800.1024 287.7952l-191.9488-173.056h-3.328V284.16c0 19.8144 16.128 35.9424 35.9424 35.9424h151.4496c2.9696-10.5984 5.5808-21.4016 7.8848-32.3072z" fill="#f4ea2a" p-id="1214"></path><path d="M201.2672 506.0608c148.992 6.0416 285.184-54.9376 379.4432-156.0576-17.8688-16.3328-29.184-39.7824-29.184-65.8432V114.688H275.712c-57.7024 0-104.4992 46.7968-104.4992 104.4992v284.672c9.9328 1.024 19.9168 1.792 30.0544 2.2016z m108.4416-168.9088h164.5568c14.1312 0 25.6 11.4688 25.6 25.6s-11.4688 25.6-25.6 25.6H309.7088c-14.1312 0-25.6-11.4688-25.6-25.6s11.4688-25.6 25.6-25.6zM608.1024 114.688h-3.328v169.472c0 9.6768 3.84 18.4832 10.0864 24.9344a491.18208 491.18208 0 0 0 68.4032-126.5664L608.1024 114.688z" fill="#f4ea2a" p-id="1215"></path><path d="M533.4528 114.688H275.712c-57.7024 0-104.4992 46.7968-104.4992 104.4992v109.6192c152.5248-6.7584 286.464-90.3168 362.24-214.1184z" fill="#f4ea2a" p-id="1216"></path></svg>