<?xml version="1.0" standalone="no"?><!DOCTYPE svg PUBLIC "-//W3C//DTD SVG 1.1//EN" "http://www.w3.org/Graphics/SVG/1.1/DTD/svg11.dtd"><svg t="1651505746918" class="icon" viewBox="0 0 1024 1024" version="1.1" xmlns="http://www.w3.org/2000/svg" p-id="1429" xmlns:xlink="http://www.w3.org/1999/xlink" width="200" height="200"><defs><style type="text/css">@font-face { font-family: feedback-iconfont; src: url("//at.alicdn.com/t/font_1031158_u69w8yhxdu.woff2?t=1630033759944") format("woff2"), url("//at.alicdn.com/t/font_1031158_u69w8yhxdu.woff?t=1630033759944") format("woff"), url("//at.alicdn.com/t/font_1031158_u69w8yhxdu.ttf?t=1630033759944") format("truetype"); }
</style></defs><path d="M509.2352 512m-133.6832 0a133.6832 133.6832 0 1 0 267.3664 0 133.6832 133.6832 0 1 0-267.3664 0Z" fill="#f4ea2a" p-id="1430"></path><path d="M935.7824 449.6896l-159.3344-275.9168a124.6208 124.6208 0 0 0-107.9296-62.3104H349.952c-44.544 0-85.6576 23.7568-107.9296 62.3104L82.688 449.6896a124.5696 124.5696 0 0 0 0 124.6208l159.3344 275.9168a124.6208 124.6208 0 0 0 107.9296 62.3104h318.6176c44.544 0 85.6576-23.7568 107.9296-62.3104l159.3344-275.9168a124.69248 124.69248 0 0 0-0.0512-124.6208z m-426.5472 250.3168c-103.68 0-188.0064-84.3264-188.0064-188.0064s84.3264-188.0064 188.0064-188.0064 188.0064 84.3264 188.0064 188.0064-84.3264 188.0064-188.0064 188.0064z" fill="#f4ea2a" p-id="1431"></path><path d="M895.1808 379.3408l-118.6816-205.568a124.6208 124.6208 0 0 0-107.9296-62.3104H349.952c-44.544 0-85.6576 23.7568-107.9296 62.3104L82.688 449.6896a124.5696 124.5696 0 0 0 0 124.6208l133.6832 231.5776c63.8976 26.5216 134.4512 39.8848 208.1792 36.864 255.1296-10.4448 456.8576-213.6064 470.6304-463.4112z m-385.9456 320.6656c-103.68 0-188.0064-84.3264-188.0064-188.0064s84.3264-188.0064 188.0064-188.0064 188.0064 84.3264 188.0064 188.0064-84.3264 188.0064-188.0064 188.0064z" fill="#f4ea2a" p-id="1432"></path><path d="M509.2352 378.3168c-73.728 0-133.6832 59.9552-133.6832 133.6832 0 61.0304 41.1136 112.5888 97.0752 128.5632a490.8032 490.8032 0 0 0 166.656-97.3824c2.4064-9.984 3.6864-20.4288 3.6864-31.1808 0-73.728-60.0064-133.6832-133.7344-133.6832z" fill="#f4ea2a" p-id="1433"></path><path d="M776.4992 173.7728a124.6208 124.6208 0 0 0-107.9296-62.3104H349.952c-44.544 0-85.6576 23.7568-107.9296 62.3104L82.688 449.6896a124.5696 124.5696 0 0 0 0 124.6208l28.672 49.664c67.4304 30.3616 142.7456 45.9776 221.6448 42.7008 20.736-0.8704 41.0624-2.9696 61.0304-6.2976-44.2368-34.4064-72.8064-88.1152-72.8064-148.4288 0-103.68 84.3264-188.0064 188.0064-188.0064 94.3104 0 172.5952 69.8368 185.9584 160.512 59.9552-74.1376 98.6624-165.7856 107.3664-265.5744l-26.0608-45.1072z" fill="#f4ea2a" p-id="1434"></path><path d="M527.4624 379.5968c-5.9392-0.8192-12.032-1.28-18.2272-1.28-58.5728 0-108.4416 37.888-126.464 90.4192a491.46368 491.46368 0 0 0 144.6912-89.1392z" fill="#f4ea2a" p-id="1435"></path><path d="M349.952 111.4624c-44.544 0-85.6576 23.7568-107.9296 62.3104L82.688 449.6896a124.04736 124.04736 0 0 0-13.7216 35.5328 491.9296 491.9296 0 0 0 152.576 17.664 494.5408 494.5408 0 0 0 101.2736-14.7456c11.776-92.416 90.8288-164.1472 186.4192-164.1472 21.9648 0 43.0592 3.84 62.6688 10.752 54.4768-62.464 93.3376-138.7008 110.7456-222.464-4.6592-0.512-9.3696-0.8704-14.08-0.8704H349.952z" fill="#f4ea2a" p-id="1436"></path><path d="M506.88 111.4624H349.952c-44.544 0-85.6576 23.7568-107.9296 62.3104L151.0912 331.2128C303.7184 320.8704 434.0736 234.8032 506.88 111.4624z" fill="#f4ea2a" p-id="1437"></path></svg>